<?xml version="1.0" encoding="UTF-8" standalone="yes"?>
<!DOCTYPE svg PUBLIC "-//W3C//DTD SVG 1.1//EN" "http://www.w3.org/Graphics/SVG/1.1/DTD/svg11.dtd">

<svg width="679" height="247" viewBox="0 0 679 247" xmlns="http://www.w3.org/2000/svg" xmlns:xlink="http://www.w3.org/1999/xlink" version="1.1" baseProfile="full">
    <g transform="scale(1.000000,-1.000000) translate(0,-247)">
        <path d="M 271.060477 1.051600 L 272.053377 1.203100 L 273.011777 1.449500 L 273.930477 1.785800 L 274.804677 2.206900 L 275.629177 2.707800 L 276.398977 3.283500 L 277.109077 3.928900 L 277.754477 4.639000 L 278.330177 5.408900 L 278.831077 6.233400 L 279.252177 7.107500 L 279.588477 8.026300 L 279.834877 8.984600 L 279.986377 9.977500 L 280.038077 11.000000 L 280.038077 81.908200 L 279.986377 82.930600 L 279.834877 83.923500 L 279.588477 84.881800 L 279.252177 85.800600 L 278.831077 86.674700 L 278.330177 87.499200 L 277.754477 88.269100 L 277.109077 88.979200 L 276.398977 89.624600 L 275.629177 90.200300 L 274.804677 90.701200 L 273.930477 91.122300 L 273.011777 91.458600 L 272.053377 91.705000 L 271.060477 91.856500 L 270.038077 91.908200 L 10.999977 91.908200 L 9.977477 91.856500 L 8.984577 91.705000 L 8.026277 91.458600 L 7.107477 91.122300 L 6.233377 90.701200 L 5.408877 90.200300 L 4.638977 89.624600 L 3.928877 88.979200 L 3.283477 88.269100 L 2.707777 87.499200 L 2.206877 86.674700 L 1.785777 85.800600 L 1.449577 84.881800 L 1.203077 83.923500 L 1.051577 82.930600 L 0.999977 81.908200 L 0.999977 11.000000 L 1.051577 9.977500 L 1.203077 8.984600 L 1.449577 8.026300 L 1.785777 7.107500 L 2.206877 6.233400 L 2.707777 5.408900 L 3.283477 4.639000 L 3.928877 3.928900 L 4.638977 3.283500 L 5.408877 2.707800 L 6.233377 2.206900 L 7.107477 1.785800 L 8.026277 1.449500 L 8.984577 1.203100 L 9.977477 1.051600 L 10.999977 1.000000 L 270.038077 1.000000 Z M 31.512677 16.000000 L 31.116177 16.004400 L 30.333677 16.039700 L 29.565377 16.110500 L 28.811077 16.216500 L 28.070877 16.358000 L 27.344777 16.534800 L 26.632677 16.747000 L 25.934677 16.994500 L 25.250777 17.277400 L 24.580977 17.595700 L 23.925277 17.949300 L 23.283577 18.338300 L 22.655977 18.762600 L 22.042477 19.222300 L 21.443077 19.717400 L 20.857677 20.247800 L 20.570277 20.526300 L 20.289077 20.813800 L 19.753477 21.399500 L 19.253577 21.999600 L 18.789477 22.614100 L 18.360977 23.243100 L 17.968177 23.886500 L 17.611177 24.544300 L 17.289777 25.216500 L 17.004177 25.903200 L 16.754277 26.604200 L 16.539977 27.319700 L 16.361477 28.049600 L 16.218677 28.794000 L 16.111577 29.552700 L 16.040077 30.325900 L 16.004377 31.113400 L 15.999977 31.512600 L 15.999977 76.908200 L 18.329077 76.908200 L 18.329077 31.512600 L 18.332877 31.173600 L 18.363077 30.504800 L 18.423477 29.848400 L 18.514077 29.204300 L 18.634977 28.572600 L 18.785977 27.953200 L 18.967277 27.346300 L 19.178777 26.751600 L 19.420477 26.169300 L 19.692377 25.599400 L 19.994477 25.041900 L 20.326877 24.496700 L 20.689377 23.963800 L 21.082177 23.443400 L 21.505177 22.935200 L 21.958277 22.439500 L 22.196277 22.196200 L 22.434177 21.958300 L 22.920277 21.505100 L 23.420177 21.082200 L 23.933777 20.689400 L 24.461177 20.326800 L 25.002177 19.994500 L 25.556977 19.692400 L 26.125577 19.420500 L 26.707877 19.178800 L 27.303877 18.967300 L 27.913577 18.786000 L 28.537077 18.635000 L 29.174277 18.514100 L 29.825177 18.423500 L 30.489877 18.363000 L 31.168277 18.332800 L 31.512677 18.329100 L 49.881777 18.329100 L 50.223477 18.332800 L 50.897077 18.363000 L 51.557677 18.423500 L 52.205177 18.514100 L 52.839577 18.635000 L 53.460977 18.786000 L 54.069377 18.967300 L 54.664677 19.178800 L 55.246977 19.420500 L 55.816177 19.692400 L 56.372377 19.994500 L 56.915477 20.326800 L 57.445577 20.689400 L 57.962677 21.082200 L 58.466677 21.505100 L 58.957577 21.958300 L 59.198177 22.196200 L 59.436077 22.439500 L 59.889277 22.935200 L 60.312277 23.443400 L 60.705077 23.963800 L 61.067577 24.496700 L 61.399877 25.041900 L 61.702077 25.599400 L 61.973977 26.169300 L 62.215677 26.751600 L 62.427177 27.346300 L 62.608377 27.953200 L 62.759477 28.572600 L 62.880377 29.204300 L 62.970977 29.848400 L 63.031377 30.504800 L 63.061577 31.173600 L 63.065377 31.512600 L 63.065377 52.123000 L 63.061577 52.459300 L 63.031377 53.123000 L 62.970977 53.774600 L 62.880377 54.414200 L 62.759477 55.041800 L 62.608377 55.657400 L 62.427177 56.260900 L 62.215677 56.852500 L 61.973977 57.432000 L 61.702077 57.999500 L 61.399877 58.555000 L 61.067577 59.098500 L 60.705077 59.630000 L 60.312277 60.149400 L 59.889277 60.656800 L 59.436077 61.152300 L 59.198177 61.395500 L 58.954977 61.636100 L 58.459177 62.094400 L 57.951077 62.522200 L 57.430577 62.919400 L 56.897777 63.286100 L 56.352577 63.622200 L 55.794977 63.927800 L 55.225077 64.202800 L 54.642777 64.447200 L 54.048177 64.661100 L 53.441177 64.844400 L 52.821877 64.997200 L 52.190077 65.119400 L 51.546077 65.211100 L 50.889577 65.272200 L 50.220777 65.302800 L 49.881777 65.306600 L 31.512677 65.306600 L 31.512677 67.635700 L 49.881777 67.635700 L 50.283677 67.631300 L 51.076077 67.595900 L 51.853277 67.525200 L 52.615477 67.419100 L 53.362577 67.277600 L 54.094577 67.100800 L 54.811377 66.888700 L 55.513177 66.641100 L 56.199777 66.358200 L 56.871277 66.040000 L 57.527777 65.686300 L 58.169077 65.297400 L 58.795277 64.873000 L 59.406377 64.413300 L 60.002377 63.918200 L 60.583377 63.387800 L 60.868077 63.109300 L 61.146577 62.819300 L 61.676977 62.229100 L 62.172077 61.625500 L 62.631777 61.008600 L 63.056177 60.378200 L 63.445177 59.734500 L 63.798777 59.077400 L 64.116977 58.406900 L 64.399877 57.723000 L 64.647477 57.025700 L 64.859677 56.315000 L 65.036477 55.590900 L 65.177877 54.853500 L 65.283977 54.102600 L 65.354677 53.338400 L 65.390077 52.560800 L 65.394477 52.166900 L 65.394477 31.512600 L 65.390077 31.113400 L 65.354677 30.325900 L 65.283977 29.552700 L 65.177877 28.794000 L 65.036477 28.049600 L 64.859677 27.319700 L 64.647477 26.604200 L 64.399877 25.903200 L 64.116977 25.216500 L 63.798777 24.544300 L 63.445177 23.886500 L 63.056177 23.243100 L 62.631777 22.614100 L 62.172077 21.999600 L 61.676977 21.399500 L 61.146577 20.813800 L 60.868077 20.526300 L 60.577977 20.247800 L 59.987477 19.717400 L 59.383277 19.222300 L 58.765277 18.762600 L 58.133577 18.338300 L 57.488077 17.949300 L 56.828877 17.595700 L 56.155977 17.277400 L 55.469377 16.994500 L 54.768977 16.747000 L 54.054877 16.534800 L 53.327077 16.358000 L 52.585477 16.216500 L 51.830177 16.110500 L 51.061077 16.039700 L 50.278277 16.004400 L 49.881777 16.000000 Z M 31.512677 25.272400 L 31.196777 25.279600 L 30.581577 25.337300 L 29.988277 25.452700 L 29.416977 25.625700 L 28.867677 25.856400 L 28.340377 26.144800 L 27.834977 26.490900 L 27.351577 26.894600 L 27.118077 27.118100 L 26.894577 27.351600 L 26.490877 27.835000 L 26.144777 28.340300 L 25.856377 28.867700 L 25.625677 29.417000 L 25.452677 29.988300 L 25.337277 30.581600 L 25.279577 31.196800 L 25.272377 31.512600 L 25.272377 76.908200 L 27.601477 76.908200 L 27.601477 31.512600 L 27.606177 31.306100 L 27.643177 30.906500 L 27.717377 30.524700 L 27.828577 30.160800 L 27.976977 29.814700 L 28.162377 29.486500 L 28.384777 29.176200 L 28.644377 28.883700 L 28.788077 28.744100 L 28.932577 28.605700 L 29.231977 28.355800 L 29.545077 28.141600 L 29.871877 27.963000 L 30.212477 27.820200 L 30.566777 27.713100 L 30.934877 27.641700 L 31.316577 27.606000 L 31.512677 27.601500 L 49.881777 27.601500 L 50.072877 27.606000 L 50.447777 27.641700 L 50.813077 27.713100 L 51.168777 27.820200 L 51.514777 27.963000 L 51.851277 28.141600 L 52.178077 28.355800 L 52.495377 28.605700 L 52.650377 28.744100 L 52.788677 28.888800 L 53.038677 29.189600 L 53.252877 29.505400 L 53.431377 29.836400 L 53.574177 30.182400 L 53.681377 30.543600 L 53.752777 30.919900 L 53.788477 31.311300 L 53.792877 31.512600 L 53.792877 52.166900 L 53.788477 52.358000 L 53.752777 52.732900 L 53.681377 53.098200 L 53.574177 53.453900 L 53.431377 53.800000 L 53.252877 54.136400 L 53.038677 54.463300 L 52.788677 54.780500 L 52.650377 54.935500 L 52.495377 55.073900 L 52.178077 55.323800 L 51.851277 55.538000 L 51.514777 55.716600 L 51.168777 55.859400 L 50.813077 55.966500 L 50.447777 56.037900 L 50.072877 56.073600 L 49.881777 56.078100 L 31.512677 56.078100 L 31.512677 58.407200 L 49.881777 58.407200 L 50.213077 58.400000 L 50.853077 58.342300 L 51.462777 58.226900 L 52.042277 58.053900 L 52.591677 57.823200 L 53.110777 57.534800 L 53.599677 57.188700 L 54.058277 56.785000 L 54.276277 56.561500 L 54.499777 56.333300 L 54.903577 55.859600 L 55.249677 55.362400 L 55.538077 54.841900 L 55.768777 54.298100 L 55.941777 53.730900 L 56.057177 53.140400 L 56.114777 52.526600 L 56.121977 52.210900 L 56.121977 31.512600 L 56.114777 31.186500 L 56.057177 30.554800 L 55.941777 29.950500 L 55.768777 29.373700 L 55.538077 28.824400 L 55.249677 28.302600 L 54.903577 27.808200 L 54.499777 27.341300 L 54.276277 27.118100 L 54.047977 26.894600 L 53.572877 26.490900 L 53.072977 26.144800 L 52.548377 25.856400 L 51.999077 25.625700 L 51.424977 25.452700 L 50.826277 25.337300 L 50.202777 25.279600 L 49.881777 25.272400 Z M 31.512677 20.614200 L 31.236477 20.617300 L 30.691277 20.642400 L 30.155677 20.692500 L 29.629677 20.767700 L 29.113377 20.868000 L 28.606577 20.993300 L 28.109477 21.143700 L 27.621977 21.319100 L 27.144077 21.519600 L 26.675777 21.745200 L 26.217077 21.995800 L 25.767977 22.271500 L 25.328577 22.572200 L 24.898677 22.898000 L 24.478477 23.248900 L 24.067877 23.624800 L 23.866177 23.822200 L 23.668777 24.024000 L 23.292877 24.434900 L 22.941977 24.855800 L 22.616177 25.286700 L 22.315377 25.727500 L 22.039777 26.178300 L 21.789077 26.639100 L 21.563577 27.109700 L 21.363077 27.590400 L 21.187577 28.081000 L 21.037177 28.581600 L 20.911877 29.092100 L 20.811677 29.612600 L 20.736477 30.143000 L 20.686377 30.683400 L 20.661277 31.233700 L 20.658177 31.512600 L 20.658177 76.908200 L 22.987277 76.908200 L 22.987277 31.512600 L 22.997077 31.077000 L 23.075277 30.228300 L 23.231877 29.409800 L 23.466677 28.621500 L 23.779777 27.863500 L 24.171177 27.135600 L 24.640877 26.438000 L 25.188777 25.770600 L 25.492177 25.448200 L 25.809177 25.144900 L 26.466977 24.596900 L 27.156377 24.127300 L 27.877377 23.735900 L 28.629977 23.422800 L 29.414077 23.187900 L 30.229777 23.031400 L 31.077177 22.953100 L 31.512677 22.943300 L 49.881777 22.943300 L 50.312277 22.953100 L 51.152777 23.031400 L 51.965777 23.187900 L 52.751277 23.422800 L 53.509377 23.735900 L 54.239877 24.127300 L 54.943077 24.596900 L 55.618677 25.144900 L 55.946277 25.448200 L 56.249577 25.770600 L 56.797477 26.438000 L 57.267177 27.135600 L 57.658577 27.863500 L 57.971677 28.621500 L 58.206477 29.409800 L 58.363077 30.228300 L 58.441377 31.077000 L 58.451077 31.512600 L 58.451077 52.166900 L 58.441377 52.602400 L 58.363077 53.449800 L 58.206477 54.265500 L 57.971677 55.049700 L 57.658577 55.802200 L 57.267177 56.523200 L 56.797477 57.212600 L 56.249577 57.870400 L 55.946277 58.187500 L 55.628977 58.490800 L 54.969877 59.038700 L 54.277677 59.508400 L 53.552577 59.899800 L 52.794577 60.212900 L 52.003477 60.447700 L 51.179577 60.604300 L 50.322577 60.682500 L 49.881777 60.692300 L 31.512677 60.692300 L 31.512677 63.021400 L 49.881777 63.021400 L 50.158077 63.018300 L 50.703577 62.993600 L 51.239877 62.944200 L 51.766877 62.870000 L 52.284577 62.771200 L 52.793077 62.647600 L 53.292177 62.499200 L 53.782177 62.326200 L 54.262777 62.128500 L 54.734177 61.906000 L 55.196277 61.658800 L 55.649177 61.386900 L 56.092677 61.090200 L 56.526977 60.768900 L 56.952077 60.422800 L 57.367777 60.052000 L 57.572177 59.857400 L 57.769577 59.650300 L 58.145477 59.229700 L 58.496377 58.800600 L 58.822177 58.362800 L 59.122977 57.916500 L 59.398677 57.461600 L 59.649277 56.998100 L 59.874877 56.526100 L 60.075377 56.045400 L 60.250777 55.556200 L 60.401177 55.058400 L 60.526477 54.552000 L 60.626677 54.037000 L 60.701877 53.513400 L 60.752077 52.981300 L 60.777077 52.440500 L 60.780177 52.166900 L 60.780177 31.512600 L 60.777077 31.236400 L 60.752077 30.690900 L 60.701877 30.154600 L 60.626677 29.627600 L 60.526477 29.109900 L 60.401177 28.601400 L 60.250777 28.102200 L 60.075377 27.612300 L 59.874877 27.131600 L 59.649277 26.660300 L 59.398677 26.198100 L 59.122977 25.745300 L 58.822177 25.301700 L 58.496377 24.867400 L 58.145477 24.442400 L 57.769577 24.026600 L 57.572177 23.822200 L 57.370477 23.624800 L 56.959477 23.248900 L 56.538577 22.898000 L 56.107777 22.572200 L 55.666877 22.271500 L 55.216077 21.995800 L 54.755377 21.745200 L 54.284677 21.519600 L 53.804077 21.319100 L 53.313377 21.143700 L 52.812877 20.993300 L 52.302377 20.868000 L 51.781877 20.767700 L 51.251477 20.692500 L 50.711077 20.642400 L 50.160677 20.617300 L 49.881777 20.614200 Z M 231.156177 16.219700 L 230.759677 16.224100 L 229.977277 16.259800 L 229.208877 16.331300 L 228.454677 16.438400 L 227.714477 16.581200 L 226.988277 16.759700 L 226.276277 16.974000 L 225.578277 17.223900 L 224.894377 17.509500 L 224.224577 17.830900 L 223.568777 18.187900 L 222.927177 18.580700 L 222.299577 19.009200 L 221.686077 19.473300 L 221.086577 19.973200 L 220.501177 20.508800 L 220.213777 20.790000 L 219.932677 21.072000 L 219.397077 21.647400 L 218.897177 22.238000 L 218.432977 22.843600 L 218.004577 23.464300 L 217.611777 24.100100 L 217.254677 24.751100 L 216.933377 25.417100 L 216.647677 26.098300 L 216.397777 26.794500 L 216.183577 27.505900 L 216.004977 28.232400 L 215.862177 28.973900 L 215.755077 29.730600 L 215.683677 30.502400 L 215.647977 31.289300 L 215.643477 31.688400 L 215.643477 52.166900 L 215.647977 52.563400 L 215.683677 53.345900 L 215.755077 54.114200 L 215.862177 54.868500 L 216.004977 55.608700 L 216.183577 56.334800 L 216.397777 57.046900 L 216.647677 57.744900 L 216.933377 58.428800 L 217.254677 59.098600 L 217.611777 59.754300 L 218.004577 60.396000 L 218.432977 61.023600 L 218.897177 61.637100 L 219.397077 62.236600 L 219.932677 62.821900 L 220.213777 63.109300 L 220.498577 63.387800 L 221.079077 63.918200 L 221.674477 64.413300 L 222.284477 64.873000 L 222.909377 65.297400 L 223.548977 65.686300 L 224.203377 66.040000 L 224.872477 66.358200 L 225.556377 66.641100 L 226.255077 66.888700 L 226.968477 67.100800 L 227.696677 67.277600 L 228.439577 67.419100 L 229.197377 67.525200 L 229.969777 67.595900 L 230.757077 67.631300 L 231.156177 67.635700 L 249.525377 67.635700 L 249.525377 65.306600 L 231.156177 65.306600 L 230.814477 65.302800 L 230.140877 65.272200 L 229.480377 65.211100 L 228.832877 65.119400 L 228.198377 64.997200 L 227.576977 64.844400 L 226.968577 64.661100 L 226.373277 64.447200 L 225.790977 64.202800 L 225.221777 63.927800 L 224.665577 63.622200 L 224.122477 63.286100 L 223.592377 62.919400 L 223.075277 62.522200 L 222.571377 62.094400 L 222.080377 61.636100 L 221.839777 61.395500 L 221.601877 61.152300 L 221.148677 60.656800 L 220.725677 60.149400 L 220.332977 59.630000 L 219.970377 59.098500 L 219.638077 58.555000 L 219.335977 57.999500 L 219.064077 57.432000 L 218.822377 56.852500 L 218.610877 56.260900 L 218.429577 55.657400 L 218.278477 55.041800 L 218.157677 54.414200 L 218.066977 53.774600 L 218.006577 53.123000 L 217.976377 52.459300 L 217.972577 52.123000 L 217.972577 31.688400 L 217.976377 31.352100 L 218.006577 30.688500 L 218.066977 30.036800 L 218.157677 29.397200 L 218.278477 28.769600 L 218.429577 28.154000 L 218.610877 27.550500 L 218.822377 26.958900 L 219.064077 26.379400 L 219.335977 25.811900 L 219.638077 25.256400 L 219.970377 24.712900 L 220.332977 24.181500 L 220.725677 23.662000 L 221.148677 23.154600 L 221.601877 22.659200 L 221.839777 22.416000 L 222.083077 22.178000 L 222.578777 21.724900 L 223.086877 21.301900 L 223.607377 20.909100 L 224.140277 20.546600 L 224.685377 20.214200 L 225.242977 19.912100 L 225.812877 19.640200 L 226.395177 19.398500 L 226.989777 19.187000 L 227.596777 19.005700 L 228.216177 18.854700 L 228.847877 18.733800 L 229.491977 18.643200 L 230.148377 18.582800 L 230.817177 18.552600 L 231.156177 18.548800 L 249.525377 18.548800 L 249.864377 18.552600 L 250.533177 18.582800 L 251.189577 18.643200 L 251.833677 18.733800 L 252.465377 18.854700 L 253.084777 19.005700 L 253.691777 19.187000 L 254.286377 19.398500 L 254.868677 19.640200 L 255.438577 19.912100 L 255.996077 20.214200 L 256.541277 20.546600 L 257.074177 20.909100 L 257.594677 21.301900 L 258.102777 21.724900 L 258.598477 22.178000 L 258.841777 22.416000 L 259.079677 22.659200 L 259.532877 23.154600 L 259.955877 23.662000 L 260.348577 24.181500 L 260.711177 24.712900 L 261.043477 25.256400 L 261.345577 25.811900 L 261.617477 26.379400 L 261.859177 26.958900 L 262.070677 27.550500 L 262.251977 28.154000 L 262.403077 28.769600 L 262.523877 29.397200 L 262.614477 30.036800 L 262.674977 30.688500 L 262.705177 31.352100 L 262.708977 31.688400 L 262.708977 76.644500 L 265.038077 76.644500 L 265.038077 31.688400 L 265.033577 31.292000 L 264.998277 30.509900 L 264.927577 29.742200 L 264.821477 28.989000 L 264.679977 28.250100 L 264.503177 27.525700 L 264.290977 26.815700 L 264.043477 26.120200 L 263.760577 25.439000 L 263.442277 24.772300 L 263.088677 24.120000 L 262.699677 23.482100 L 262.275377 22.858600 L 261.815677 22.249500 L 261.320577 21.654900 L 260.790177 21.074700 L 260.511677 20.790000 L 260.224177 20.508800 L 259.638477 19.973200 L 259.038377 19.473300 L 258.423877 19.009200 L 257.794877 18.580700 L 257.151477 18.187900 L 256.493677 17.830900 L 255.821477 17.509500 L 255.134777 17.223900 L 254.433777 16.974000 L 253.718277 16.759700 L 252.988377 16.581200 L 252.244077 16.438400 L 251.485277 16.331300 L 250.712077 16.259800 L 249.924577 16.224100 L 249.525377 16.219700 Z M 231.156177 25.536100 L 230.835177 25.543100 L 230.211677 25.599400 L 229.612977 25.712000 L 229.038977 25.881000 L 228.489577 26.106200 L 227.964977 26.387700 L 227.465177 26.725500 L 226.989977 27.119700 L 226.761677 27.337800 L 226.538177 27.576300 L 226.134377 28.066500 L 225.788377 28.574700 L 225.499977 29.100600 L 225.269277 29.644500 L 225.096177 30.206100 L 224.980877 30.785700 L 224.923177 31.383000 L 224.915977 31.688400 L 224.915977 52.210900 L 224.923177 52.521400 L 224.980877 53.127000 L 225.096177 53.712100 L 225.269277 54.276500 L 225.499977 54.820300 L 225.788377 55.343500 L 226.134377 55.846200 L 226.538177 56.328200 L 226.761677 56.561500 L 226.984877 56.785000 L 227.451777 57.188700 L 227.946177 57.534800 L 228.467977 57.823200 L 229.017277 58.053900 L 229.594077 58.226900 L 230.198377 58.342300 L 230.830077 58.400000 L 231.156177 58.407200 L 249.525377 58.407200 L 249.525377 56.078100 L 231.156177 56.078100 L 230.960177 56.073600 L 230.578377 56.037900 L 230.210377 55.966500 L 229.856077 55.859400 L 229.515477 55.716600 L 229.188577 55.538000 L 228.875477 55.323800 L 228.576177 55.073900 L 228.431577 54.935500 L 228.287877 54.785600 L 228.028377 54.476600 L 227.805877 54.155300 L 227.620477 53.821600 L 227.472177 53.475500 L 227.360977 53.117100 L 227.286777 52.746300 L 227.249677 52.363200 L 227.245077 52.166900 L 227.245077 31.732400 L 227.249677 31.531200 L 227.286777 31.141200 L 227.360977 30.767600 L 227.472177 30.410600 L 227.620477 30.070000 L 227.805877 29.745900 L 228.028377 29.438300 L 228.287877 29.147200 L 228.431577 29.007800 L 228.576177 28.869400 L 228.875477 28.619500 L 229.188577 28.405200 L 229.515477 28.226700 L 229.856077 28.083900 L 230.210377 27.976800 L 230.578377 27.905400 L 230.960177 27.869600 L 231.156177 27.865200 L 249.525377 27.865200 L 249.716377 27.869600 L 250.091277 27.905400 L 250.456577 27.976800 L 250.812277 28.083900 L 251.158377 28.226700 L 251.494777 28.405200 L 251.821677 28.619500 L 252.138877 28.869400 L 252.293877 29.007800 L 252.432277 29.152300 L 252.682177 29.451700 L 252.896477 29.764800 L 253.074977 30.091600 L 253.217777 30.432200 L 253.324877 30.786500 L 253.396277 31.154600 L 253.431977 31.536300 L 253.436477 31.732400 L 253.436477 76.644500 L 255.765577 76.644500 L 255.765577 31.688400 L 255.758377 31.377900 L 255.700677 30.772300 L 255.585377 30.187200 L 255.412277 29.622800 L 255.181577 29.079000 L 254.893177 28.555800 L 254.547077 28.053200 L 254.143377 27.571100 L 253.919877 27.337800 L 253.696677 27.119700 L 253.229777 26.725500 L 252.735377 26.387700 L 252.213577 26.106200 L 251.664277 25.881000 L 251.087477 25.712000 L 250.483177 25.599400 L 249.851477 25.543100 L 249.525377 25.536100 Z M 231.156177 20.614200 L 230.879977 20.617300 L 230.334777 20.642400 L 229.799177 20.692500 L 229.273277 20.767700 L 228.756877 20.868000 L 228.250177 20.993300 L 227.752977 21.143700 L 227.265477 21.319100 L 226.787577 21.519600 L 226.319277 21.745200 L 225.860577 21.995800 L 225.411577 22.271500 L 224.972077 22.572200 L 224.542277 22.898000 L 224.122077 23.248900 L 223.711377 23.624800 L 223.509677 23.822200 L 223.312377 24.024000 L 222.936377 24.434900 L 222.585577 24.855800 L 222.259677 25.286700 L 221.958977 25.727500 L 221.683277 26.178300 L 221.432677 26.639100 L 221.207077 27.109700 L 221.006577 27.590400 L 220.831177 28.081000 L 220.680777 28.581600 L 220.555477 29.092100 L 220.455177 29.612600 L 220.380077 30.143000 L 220.329877 30.683400 L 220.304877 31.233700 L 220.301677 31.512600 L 220.301677 51.947200 L 220.304877 52.223400 L 220.329877 52.768600 L 220.380077 53.304200 L 220.455177 53.830200 L 220.555477 54.346500 L 220.680777 54.853300 L 220.831177 55.350400 L 221.006577 55.837900 L 221.207077 56.315800 L 221.432677 56.784100 L 221.683277 57.242800 L 221.958977 57.691900 L 222.259677 58.131300 L 222.585577 58.561200 L 222.936377 58.981400 L 223.312377 59.392000 L 223.509677 59.593700 L 223.711377 59.791100 L 224.122077 60.167000 L 224.542277 60.517900 L 224.972077 60.843700 L 225.411577 61.144400 L 225.860577 61.420100 L 226.319277 61.670800 L 226.787577 61.896300 L 227.265477 62.096800 L 227.752977 62.272300 L 228.250177 62.422600 L 228.756877 62.547900 L 229.273277 62.648200 L 229.799177 62.723400 L 230.334777 62.773500 L 230.879977 62.798600 L 231.156177 62.801700 L 249.525377 62.801700 L 249.525377 60.472600 L 231.156177 60.472600 L 230.720677 60.462800 L 229.873377 60.384500 L 229.057677 60.228000 L 228.273477 59.993200 L 227.520977 59.680000 L 226.799977 59.288700 L 226.110577 58.819000 L 225.452777 58.271000 L 225.135677 57.967700 L 224.832377 57.650700 L 224.284377 56.992900 L 223.814777 56.303500 L 223.423377 55.582500 L 223.110277 54.829900 L 222.875477 54.045800 L 222.718877 53.230000 L 222.640577 52.382700 L 222.630777 51.947200 L 222.630777 31.512600 L 222.640577 31.077000 L 222.718877 30.228300 L 222.875477 29.409800 L 223.110277 28.621500 L 223.423377 27.863500 L 223.814777 27.135600 L 224.284377 26.438000 L 224.832377 25.770600 L 225.135677 25.448200 L 225.452777 25.144900 L 226.110577 24.596900 L 226.799977 24.127300 L 227.520977 23.735900 L 228.273477 23.422800 L 229.057677 23.187900 L 229.873377 23.031400 L 230.720677 22.953100 L 231.156177 22.943300 L 249.525377 22.943300 L 249.955877 22.953100 L 250.796277 23.031400 L 251.609277 23.187900 L 252.394877 23.422800 L 253.152877 23.735900 L 253.883477 24.127300 L 254.586577 24.596900 L 255.262277 25.144900 L 255.589777 25.448200 L 255.893077 25.770600 L 256.441077 26.438000 L 256.910777 27.135600 L 257.302077 27.863500 L 257.615177 28.621500 L 257.850077 29.409800 L 258.006577 30.228300 L 258.084877 31.077000 L 258.094677 31.512600 L 258.094677 76.424800 L 260.423777 76.424800 L 260.423777 31.512600 L 260.420677 31.236400 L 260.395577 30.690900 L 260.345477 30.154600 L 260.270277 29.627600 L 260.169977 29.109900 L 260.044677 28.601400 L 259.894377 28.102200 L 259.718877 27.612300 L 259.518377 27.131600 L 259.292877 26.660300 L 259.042177 26.198100 L 258.766477 25.745300 L 258.465777 25.301700 L 258.139977 24.867400 L 257.789077 24.442400 L 257.413177 24.026600 L 257.215777 23.822200 L 257.013977 23.624800 L 256.603077 23.248900 L 256.182177 22.898000 L 255.751277 22.572200 L 255.310477 22.271500 L 254.859677 21.995800 L 254.398977 21.745200 L 253.928277 21.519600 L 253.447577 21.319100 L 252.956977 21.143700 L 252.456377 20.993300 L 251.945877 20.868000 L 251.425377 20.767700 L 250.894977 20.692500 L 250.354577 20.642400 L 249.804277 20.617300 L 249.525377 20.614200 Z M 85.301677 16.000000 L 84.905177 16.004400 L 84.122777 16.039700 L 83.354377 16.110500 L 82.600177 16.216500 L 81.859977 16.358000 L 81.133777 16.534800 L 80.421777 16.747000 L 79.723777 16.994500 L 79.039877 17.277400 L 78.370077 17.595700 L 77.714277 17.949300 L 77.072677 18.338300 L 76.445077 18.762600 L 75.831577 19.222300 L 75.232077 19.717400 L 74.646777 20.247800 L 74.359277 20.526300 L 74.078177 20.813800 L 73.542577 21.399500 L 73.042677 21.999600 L 72.578477 22.614100 L 72.150077 23.243100 L 71.757277 23.886500 L 71.400177 24.544300 L 71.078877 25.216500 L 70.793277 25.903200 L 70.543277 26.604200 L 70.329077 27.319700 L 70.150577 28.049600 L 70.007677 28.794000 L 69.900577 29.552700 L 69.829177 30.325900 L 69.793477 31.113400 L 69.788977 31.512600 L 69.788977 52.166900 L 69.793477 52.563400 L 69.829177 53.345900 L 69.900577 54.114200 L 70.007677 54.868500 L 70.150577 55.608700 L 70.329077 56.334800 L 70.543277 57.046900 L 70.793277 57.744900 L 71.078877 58.428800 L 71.400177 59.098600 L 71.757277 59.754300 L 72.150077 60.396000 L 72.578477 61.023600 L 73.042677 61.637100 L 73.542577 62.236600 L 74.078177 62.821900 L 74.359277 63.109300 L 74.644077 63.387800 L 75.224677 63.918200 L 75.819977 64.413300 L 76.430077 64.873000 L 77.054877 65.297400 L 77.694477 65.686300 L 78.348877 66.040000 L 79.017977 66.358200 L 79.701877 66.641100 L 80.400577 66.888700 L 81.113977 67.100800 L 81.842177 67.277600 L 82.585077 67.419100 L 83.342877 67.525200 L 84.115277 67.595900 L 84.902577 67.631300 L 85.301677 67.635700 L 103.670877 67.635700 L 104.072677 67.631300 L 104.865077 67.595900 L 105.642377 67.525200 L 106.404577 67.419100 L 107.151577 67.277600 L 107.883577 67.100800 L 108.600477 66.888700 L 109.302177 66.641100 L 109.988877 66.358200 L 110.660377 66.040000 L 111.316777 65.686300 L 111.958177 65.297400 L 112.584377 64.873000 L 113.195477 64.413300 L 113.791477 63.918200 L 114.372377 63.387800 L 114.657177 63.109300 L 114.935677 62.819300 L 115.466077 62.229100 L 115.961177 61.625500 L 116.420877 61.008600 L 116.845177 60.378200 L 117.234177 59.734500 L 117.587777 59.077400 L 117.906077 58.406900 L 118.188977 57.723000 L 118.436477 57.025700 L 118.648677 56.315000 L 118.825477 55.590900 L 118.966977 54.853500 L 119.073077 54.102600 L 119.143777 53.338400 L 119.179077 52.560800 L 119.183577 52.166900 L 119.183577 31.512600 L 119.179077 31.113400 L 119.143777 30.325900 L 119.073077 29.552700 L 118.966977 28.794000 L 118.825477 28.049600 L 118.648677 27.319700 L 118.436477 26.604200 L 118.188977 25.903200 L 117.906077 25.216500 L 117.587777 24.544300 L 117.234177 23.886500 L 116.845177 23.243100 L 116.420877 22.614100 L 115.961177 21.999600 L 115.466077 21.399500 L 114.935677 20.813800 L 114.657177 20.526300 L 114.367077 20.247800 L 113.776577 19.717400 L 113.172277 19.222300 L 112.554277 18.762600 L 111.922577 18.338300 L 111.277177 17.949300 L 110.617977 17.595700 L 109.945077 17.277400 L 109.258377 16.994500 L 108.558077 16.747000 L 107.843977 16.534800 L 107.116077 16.358000 L 106.374477 16.216500 L 105.619177 16.110500 L 104.850177 16.039700 L 104.067377 16.004400 L 103.670877 16.000000 Z M 139.090777 16.000000 L 138.694277 16.004400 L 137.911877 16.039700 L 137.143477 16.110500 L 136.389177 16.216500 L 135.648977 16.358000 L 134.922877 16.534800 L 134.210777 16.747000 L 133.512877 16.994500 L 132.828977 17.277400 L 132.159177 17.595700 L 131.503377 17.949300 L 130.861677 18.338300 L 130.234077 18.762600 L 129.620577 19.222300 L 129.021177 19.717400 L 128.435777 20.247800 L 128.148377 20.526300 L 127.867177 20.813800 L 127.331577 21.399500 L 126.831777 21.999600 L 126.367577 22.614100 L 125.939077 23.243100 L 125.546377 23.886500 L 125.189277 24.544300 L 124.867977 25.216500 L 124.582277 25.903200 L 124.332377 26.604200 L 124.118077 27.319700 L 123.939577 28.049600 L 123.796777 28.794000 L 123.689677 29.552700 L 123.618277 30.325900 L 123.582577 31.113400 L 123.578077 31.512600 L 123.578077 52.166900 L 123.582577 52.563400 L 123.618277 53.345900 L 123.689677 54.114200 L 123.796777 54.868500 L 123.939577 55.608700 L 124.118077 56.334800 L 124.332377 57.046900 L 124.582277 57.744900 L 124.867977 58.428800 L 125.189277 59.098600 L 125.546377 59.754300 L 125.939077 60.396000 L 126.367577 61.023600 L 126.831777 61.637100 L 127.331577 62.236600 L 127.867177 62.821900 L 128.148377 63.109300 L 128.433177 63.387800 L 129.013677 63.918200 L 129.608977 64.413300 L 130.219077 64.873000 L 130.843977 65.297400 L 131.483577 65.686300 L 132.137977 66.040000 L 132.807077 66.358200 L 133.490977 66.641100 L 134.189577 66.888700 L 134.903077 67.100800 L 135.631277 67.277600 L 136.374177 67.419100 L 137.131877 67.525200 L 137.904377 67.595900 L 138.691577 67.631300 L 139.090777 67.635700 L 157.459877 67.635700 L 157.861777 67.631300 L 158.654177 67.595900 L 159.431477 67.525200 L 160.193577 67.419100 L 160.940677 67.277600 L 161.672677 67.100800 L 162.389477 66.888700 L 163.091277 66.641100 L 163.777877 66.358200 L 164.449477 66.040000 L 165.105877 65.686300 L 165.747177 65.297400 L 166.373477 64.873000 L 166.984577 64.413300 L 167.580577 63.918200 L 168.161477 63.387800 L 168.446277 63.109300 L 168.724677 62.819300 L 169.255177 62.229100 L 169.750177 61.625500 L 170.209977 61.008600 L 170.634277 60.378200 L 171.023277 59.734500 L 171.376877 59.077400 L 171.695177 58.406900 L 171.978077 57.723000 L 172.225577 57.025700 L 172.437777 56.315000 L 172.614577 55.590900 L 172.755977 54.853500 L 172.862077 54.102600 L 172.932777 53.338400 L 172.968177 52.560800 L 172.972577 52.166900 L 172.972577 16.000000 L 170.643477 16.000000 L 170.643477 52.123000 L 170.639777 52.459300 L 170.609477 53.123000 L 170.549077 53.774600 L 170.458477 54.414200 L 170.337577 55.041800 L 170.186577 55.657400 L 170.005277 56.260900 L 169.793777 56.852500 L 169.552077 57.432000 L 169.280177 57.999500 L 168.978077 58.555000 L 168.645677 59.098500 L 168.283177 59.630000 L 167.890377 60.149400 L 167.467377 60.656800 L 167.014277 61.152300 L 166.776277 61.395500 L 166.533077 61.636100 L 166.037277 62.094400 L 165.529177 62.522200 L 165.008677 62.919400 L 164.475877 63.286100 L 163.930677 63.622200 L 163.373177 63.927800 L 162.803177 64.202800 L 162.220977 64.447200 L 161.626277 64.661100 L 161.019277 64.844400 L 160.399977 64.997200 L 159.768277 65.119400 L 159.124177 65.211100 L 158.467777 65.272200 L 157.798977 65.302800 L 157.459877 65.306600 L 139.090777 65.306600 L 138.749077 65.302800 L 138.075477 65.272200 L 137.414877 65.211100 L 136.767377 65.119400 L 136.132977 64.997200 L 135.511577 64.844400 L 134.903177 64.661100 L 134.307877 64.447200 L 133.725577 64.202800 L 133.156377 63.927800 L 132.600177 63.622200 L 132.057077 63.286100 L 131.526977 62.919400 L 131.009877 62.522200 L 130.505877 62.094400 L 130.014977 61.636100 L 129.774377 61.395500 L 129.536477 61.152300 L 129.083277 60.656800 L 128.660277 60.149400 L 128.267477 59.630000 L 127.904977 59.098500 L 127.572677 58.555000 L 127.270477 57.999500 L 126.998577 57.432000 L 126.756877 56.852500 L 126.545377 56.260900 L 126.364177 55.657400 L 126.213077 55.041800 L 126.092277 54.414200 L 126.001577 53.774600 L 125.941177 53.123000 L 125.910977 52.459300 L 125.907177 52.123000 L 125.907177 31.512600 L 125.910977 31.173600 L 125.941177 30.504800 L 126.001577 29.848400 L 126.092277 29.204300 L 126.213077 28.572600 L 126.364177 27.953200 L 126.545377 27.346300 L 126.756877 26.751600 L 126.998577 26.169300 L 127.270477 25.599400 L 127.572677 25.041900 L 127.904977 24.496700 L 128.267477 23.963800 L 128.660277 23.443400 L 129.083277 22.935200 L 129.536477 22.439500 L 129.774377 22.196200 L 130.012277 21.958300 L 130.498477 21.505100 L 130.998277 21.082200 L 131.511877 20.689400 L 132.039277 20.326800 L 132.580377 19.994500 L 133.135177 19.692400 L 133.703677 19.420500 L 134.285977 19.178800 L 134.881977 18.967300 L 135.491677 18.786000 L 136.115177 18.635000 L 136.752377 18.514100 L 137.403377 18.423500 L 138.067977 18.363000 L 138.746377 18.332800 L 139.090777 18.329100 L 157.459877 18.329100 L 157.459877 16.000000 Z M 177.455077 16.000000 L 177.367177 52.166900 L 177.371577 52.563400 L 177.407277 53.345900 L 177.478677 54.114200 L 177.585877 54.868500 L 177.728677 55.608700 L 177.907177 56.334800 L 178.121377 57.046900 L 178.371377 57.744900 L 178.656977 58.428800 L 178.978377 59.098600 L 179.335377 59.754300 L 179.728177 60.396000 L 180.156677 61.023600 L 180.620777 61.637100 L 181.120677 62.236600 L 181.656277 62.821900 L 181.937477 63.109300 L 182.222177 63.387800 L 182.802777 63.918200 L 183.398077 64.413300 L 184.008177 64.873000 L 184.632977 65.297400 L 185.272577 65.686300 L 185.926977 66.040000 L 186.596077 66.358200 L 187.279977 66.641100 L 187.978677 66.888700 L 188.692077 67.100800 L 189.420277 67.277600 L 190.163277 67.419100 L 190.920977 67.525200 L 191.693477 67.595900 L 192.480677 67.631300 L 192.879877 67.635700 L 211.248977 67.635700 L 211.248977 65.306600 L 192.879877 65.306600 L 192.538177 65.302800 L 191.864577 65.272200 L 191.203977 65.211100 L 190.556477 65.119400 L 189.921977 64.997200 L 189.300577 64.844400 L 188.692277 64.661100 L 188.096877 64.447200 L 187.514677 64.202800 L 186.945377 63.927800 L 186.389277 63.622200 L 185.846077 63.286100 L 185.315977 62.919400 L 184.798977 62.522200 L 184.294977 62.094400 L 183.803977 61.636100 L 183.563477 61.395500 L 183.325477 61.152300 L 182.872277 60.656800 L 182.449377 60.149400 L 182.056577 59.630000 L 181.694077 59.098500 L 181.361677 58.555000 L 181.059577 57.999500 L 180.787677 57.432000 L 180.545977 56.852500 L 180.334477 56.260900 L 180.153177 55.657400 L 180.002177 55.041800 L 179.881277 54.414200 L 179.790677 53.774600 L 179.730277 53.123000 L 179.699977 52.459300 L 179.696277 52.123000 L 179.784177 16.000000 Z M 104.012577 18.332800 L 104.686177 18.363000 L 105.346677 18.423500 L 105.994177 18.514100 L 106.628677 18.635000 L 107.250077 18.786000 L 107.858477 18.967300 L 108.453777 19.178800 L 109.036077 19.420500 L 109.605277 19.692400 L 110.161477 19.994500 L 110.704577 20.326800 L 111.234677 20.689400 L 111.751677 21.082200 L 112.255677 21.505100 L 112.746677 21.958300 L 112.987277 22.196200 L 113.225177 22.439500 L 113.678377 22.935200 L 114.101377 23.443400 L 114.494077 23.963800 L 114.856677 24.496700 L 115.188977 25.041900 L 115.491077 25.599400 L 115.762977 26.169300 L 116.004677 26.751600 L 116.216177 27.346300 L 116.397477 27.953200 L 116.548577 28.572600 L 116.669377 29.204300 L 116.760077 29.848400 L 116.820477 30.504800 L 116.850677 31.173600 L 116.854477 31.512600 L 116.854477 52.123000 L 116.850677 52.459300 L 116.820477 53.123000 L 116.760077 53.774600 L 116.669377 54.414200 L 116.548577 55.041800 L 116.397477 55.657400 L 116.216177 56.260900 L 116.004677 56.852500 L 115.762977 57.432000 L 115.491077 57.999500 L 115.188977 58.555000 L 114.856677 59.098500 L 114.494077 59.630000 L 114.101377 60.149400 L 113.678377 60.656800 L 113.225177 61.152300 L 112.987277 61.395500 L 112.743977 61.636100 L 112.248277 62.094400 L 111.740177 62.522200 L 111.219677 62.919400 L 110.686777 63.286100 L 110.141577 63.622200 L 109.584077 63.927800 L 109.014177 64.202800 L 108.431877 64.447200 L 107.837277 64.661100 L 107.230277 64.844400 L 106.610877 64.997200 L 105.979177 65.119400 L 105.335077 65.211100 L 104.678677 65.272200 L 104.009877 65.302800 L 103.670877 65.306600 L 85.301677 65.306600 L 84.959977 65.302800 L 84.286377 65.272200 L 83.625877 65.211100 L 82.978377 65.119400 L 82.343877 64.997200 L 81.722477 64.844400 L 81.114077 64.661100 L 80.518777 64.447200 L 79.936477 64.202800 L 79.367277 63.927800 L 78.811077 63.622200 L 78.267977 63.286100 L 77.737877 62.919400 L 77.220877 62.522200 L 76.716877 62.094400 L 76.225877 61.636100 L 75.985277 61.395500 L 75.747377 61.152300 L 75.294177 60.656800 L 74.871177 60.149400 L 74.478477 59.630000 L 74.115877 59.098500 L 73.783577 58.555000 L 73.481477 57.999500 L 73.209577 57.432000 L 72.967877 56.852500 L 72.756377 56.260900 L 72.575077 55.657400 L 72.423977 55.041800 L 72.303177 54.414200 L 72.212577 53.774600 L 72.152077 53.123000 L 72.121877 52.459300 L 72.118077 52.123000 L 72.118077 31.512600 L 72.121877 31.173600 L 72.152077 30.504800 L 72.212577 29.848400 L 72.303177 29.204300 L 72.423977 28.572600 L 72.575077 27.953200 L 72.756377 27.346300 L 72.967877 26.751600 L 73.209577 26.169300 L 73.481477 25.599400 L 73.783577 25.041900 L 74.115877 24.496700 L 74.478477 23.963800 L 74.871177 23.443400 L 75.294177 22.935200 L 75.747377 22.439500 L 75.985277 22.196200 L 76.223177 21.958300 L 76.709377 21.505100 L 77.209277 21.082200 L 77.722877 20.689400 L 78.250177 20.326800 L 78.791277 19.994500 L 79.346077 19.692400 L 79.914677 19.420500 L 80.496877 19.178800 L 81.092877 18.967300 L 81.702677 18.786000 L 82.326177 18.635000 L 82.963377 18.514100 L 83.614277 18.423500 L 84.278977 18.363000 L 84.957377 18.332800 L 85.301677 18.329100 L 103.670877 18.329100 Z M 85.301677 20.614200 L 85.025477 20.617300 L 84.480277 20.642400 L 83.944677 20.692500 L 83.418777 20.767700 L 82.902377 20.868000 L 82.395677 20.993300 L 81.898477 21.143700 L 81.410977 21.319100 L 80.933077 21.519600 L 80.464777 21.745200 L 80.006077 21.995800 L 79.557077 22.271500 L 79.117577 22.572200 L 78.687777 22.898000 L 78.267577 23.248900 L 77.856877 23.624800 L 77.655177 23.822200 L 77.457877 24.024000 L 77.081877 24.434900 L 76.731077 24.855800 L 76.405277 25.286700 L 76.104477 25.727500 L 75.828777 26.178300 L 75.578177 26.639100 L 75.352577 27.109700 L 75.152077 27.590400 L 74.976677 28.081000 L 74.826277 28.581600 L 74.700977 29.092100 L 74.600677 29.612600 L 74.525577 30.143000 L 74.475377 30.683400 L 74.450377 31.233700 L 74.447177 31.512600 L 74.447177 52.166900 L 74.450377 52.445800 L 74.475377 52.996200 L 74.525577 53.536600 L 74.600677 54.067000 L 74.700977 54.587500 L 74.826277 55.098000 L 74.976677 55.598600 L 75.152077 56.089200 L 75.352577 56.569800 L 75.578177 57.040500 L 75.828777 57.501300 L 76.104477 57.952100 L 76.405277 58.392900 L 76.731077 58.823800 L 77.081877 59.244700 L 77.457877 59.655600 L 77.655177 59.857400 L 77.856877 60.052000 L 78.267577 60.422800 L 78.687777 60.768900 L 79.117577 61.090200 L 79.557077 61.386900 L 80.006077 61.658800 L 80.464777 61.906000 L 80.933077 62.128500 L 81.410977 62.326200 L 81.898477 62.499200 L 82.395677 62.647600 L 82.902377 62.771200 L 83.418777 62.870000 L 83.944677 62.944200 L 84.480277 62.993600 L 85.025477 63.018300 L 85.301677 63.021400 L 103.670877 63.021400 L 103.947077 63.018300 L 104.492677 62.993600 L 105.028877 62.944200 L 105.555877 62.870000 L 106.073677 62.771200 L 106.582077 62.647600 L 107.081277 62.499200 L 107.571177 62.326200 L 108.051877 62.128500 L 108.523277 61.906000 L 108.985377 61.658800 L 109.438177 61.386900 L 109.881777 61.090200 L 110.316077 60.768900 L 110.741077 60.422800 L 111.156877 60.052000 L 111.361277 59.857400 L 111.558677 59.650300 L 111.934577 59.229700 L 112.285477 58.800600 L 112.611277 58.362800 L 112.911977 57.916500 L 113.187677 57.461600 L 113.438377 56.998100 L 113.663877 56.526100 L 113.864377 56.045400 L 114.039877 55.556200 L 114.190177 55.058400 L 114.315577 54.552000 L 114.415777 54.037000 L 114.490977 53.513400 L 114.541077 52.981300 L 114.566177 52.440500 L 114.569277 52.166900 L 114.569277 31.512600 L 114.566177 31.236400 L 114.541077 30.690900 L 114.490977 30.154600 L 114.415777 29.627600 L 114.315577 29.109900 L 114.190177 28.601400 L 114.039877 28.102200 L 113.864377 27.612300 L 113.663877 27.131600 L 113.438377 26.660300 L 113.187677 26.198100 L 112.911977 25.745300 L 112.611277 25.301700 L 112.285477 24.867400 L 111.934577 24.442400 L 111.558677 24.026600 L 111.361277 23.822200 L 111.159577 23.624800 L 110.748577 23.248900 L 110.327677 22.898000 L 109.896777 22.572200 L 109.455977 22.271500 L 109.005177 21.995800 L 108.544477 21.745200 L 108.073777 21.519600 L 107.593077 21.319100 L 107.102477 21.143700 L 106.601877 20.993300 L 106.091377 20.868000 L 105.570877 20.767700 L 105.040477 20.692500 L 104.500077 20.642400 L 103.949777 20.617300 L 103.670877 20.614200 Z M 166.029277 16.000000 L 166.029277 52.166900 L 166.019477 52.602400 L 165.941177 53.449800 L 165.784677 54.265500 L 165.549777 55.049700 L 165.236677 55.802200 L 164.845277 56.523200 L 164.375677 57.212600 L 163.827677 57.870400 L 163.524377 58.187500 L 163.207177 58.490800 L 162.547977 59.038700 L 161.855777 59.508400 L 161.130677 59.899800 L 160.372677 60.212900 L 159.581677 60.447700 L 158.757677 60.604300 L 157.900777 60.682500 L 157.459877 60.692300 L 139.090777 60.692300 L 138.644977 60.682500 L 137.781177 60.604300 L 136.954477 60.447700 L 136.164777 60.212900 L 135.412277 59.899800 L 134.696777 59.508400 L 134.018377 59.038700 L 133.376977 58.490800 L 133.070277 58.187500 L 132.766977 57.870400 L 132.218977 57.212600 L 131.749377 56.523200 L 131.357977 55.802200 L 131.044877 55.049700 L 130.809977 54.265500 L 130.653477 53.449800 L 130.575177 52.602400 L 130.565377 52.166900 L 130.565377 31.512600 L 130.575177 31.077000 L 130.653477 30.228300 L 130.809977 29.409800 L 131.044877 28.621500 L 131.357977 27.863500 L 131.749377 27.135600 L 132.218977 26.438000 L 132.766977 25.770600 L 133.070277 25.448200 L 133.387277 25.144900 L 134.045177 24.596900 L 134.734477 24.127300 L 135.455477 23.735900 L 136.208077 23.422800 L 136.992177 23.187900 L 137.807977 23.031400 L 138.655277 22.953100 L 139.090777 22.943300 L 157.459877 22.943300 L 157.459877 20.614200 L 139.090777 20.614200 L 138.814577 20.617300 L 138.269377 20.642400 L 137.733777 20.692500 L 137.207777 20.767700 L 136.691477 20.868000 L 136.184677 20.993300 L 135.687577 21.143700 L 135.200077 21.319100 L 134.722177 21.519600 L 134.253877 21.745200 L 133.795177 21.995800 L 133.346077 22.271500 L 132.906677 22.572200 L 132.476877 22.898000 L 132.056577 23.248900 L 131.645977 23.624800 L 131.444277 23.822200 L 131.246877 24.024000 L 130.870977 24.434900 L 130.520077 24.855800 L 130.194277 25.286700 L 129.893577 25.727500 L 129.617877 26.178300 L 129.367177 26.639100 L 129.141677 27.109700 L 128.941177 27.590400 L 128.765677 28.081000 L 128.615377 28.581600 L 128.490077 29.092100 L 128.389777 29.612600 L 128.314577 30.143000 L 128.264477 30.683400 L 128.239377 31.233700 L 128.236277 31.512600 L 128.236277 52.166900 L 128.239377 52.445800 L 128.264477 52.996200 L 128.314577 53.536600 L 128.389777 54.067000 L 128.490077 54.587500 L 128.615377 55.098000 L 128.765677 55.598600 L 128.941177 56.089200 L 129.141677 56.569800 L 129.367177 57.040500 L 129.617877 57.501300 L 129.893577 57.952100 L 130.194277 58.392900 L 130.520077 58.823800 L 130.870977 59.244700 L 131.246877 59.655600 L 131.444277 59.857400 L 131.645977 60.052000 L 132.056577 60.422800 L 132.476877 60.768900 L 132.906677 61.090200 L 133.346077 61.386900 L 133.795177 61.658800 L 134.253877 61.906000 L 134.722177 62.128500 L 135.200077 62.326200 L 135.687577 62.499200 L 136.184677 62.647600 L 136.691477 62.771200 L 137.207777 62.870000 L 137.733777 62.944200 L 138.269377 62.993600 L 138.814577 63.018300 L 139.090777 63.021400 L 157.459877 63.021400 L 157.736177 63.018300 L 158.281677 62.993600 L 158.817977 62.944200 L 159.344977 62.870000 L 159.862677 62.771200 L 160.371177 62.647600 L 160.870377 62.499200 L 161.360277 62.326200 L 161.840877 62.128500 L 162.312277 61.906000 L 162.774377 61.658800 L 163.227277 61.386900 L 163.670877 61.090200 L 164.105177 60.768900 L 164.530177 60.422800 L 164.945977 60.052000 L 165.150377 59.857400 L 165.347677 59.650300 L 165.723677 59.229700 L 166.074477 58.800600 L 166.400377 58.362800 L 166.701077 57.916500 L 166.976777 57.461600 L 167.227377 56.998100 L 167.452977 56.526100 L 167.653477 56.045400 L 167.828877 55.556200 L 167.979277 55.058400 L 168.104577 54.552000 L 168.204877 54.037000 L 168.280077 53.513400 L 168.330177 52.981300 L 168.355177 52.440500 L 168.358377 52.166900 L 168.358377 16.000000 Z M 182.113277 16.000000 L 182.025377 52.166900 L 182.028477 52.445800 L 182.053577 52.996200 L 182.103677 53.536600 L 182.178877 54.067000 L 182.279077 54.587500 L 182.404377 55.098000 L 182.554777 55.598600 L 182.730177 56.089200 L 182.930677 56.569800 L 183.156277 57.040500 L 183.406877 57.501300 L 183.682577 57.952100 L 183.983377 58.392900 L 184.309177 58.823800 L 184.660077 59.244700 L 185.035977 59.655600 L 185.233377 59.857400 L 185.435077 60.052000 L 185.845677 60.422800 L 186.265877 60.768900 L 186.695777 61.090200 L 187.135177 61.386900 L 187.584277 61.658800 L 188.042977 61.906000 L 188.511177 62.128500 L 188.989177 62.326200 L 189.476677 62.499200 L 189.973777 62.647600 L 190.480477 62.771200 L 190.996877 62.870000 L 191.522877 62.944200 L 192.058477 62.993600 L 192.603677 63.018300 L 192.879877 63.021400 L 211.248977 63.021400 L 211.248977 60.692300 L 192.879877 60.692300 L 192.434077 60.682500 L 191.570277 60.604300 L 190.743477 60.447700 L 189.953877 60.212900 L 189.201277 59.899800 L 188.485777 59.508400 L 187.807377 59.038700 L 187.166077 58.490800 L 186.859277 58.187500 L 186.555977 57.870400 L 186.008077 57.212600 L 185.538377 56.523200 L 185.146977 55.802200 L 184.833877 55.049700 L 184.599077 54.265500 L 184.442477 53.449800 L 184.364277 52.602400 L 184.354477 52.166900 L 184.442377 16.000000 Z M 104.101377 22.953100 L 104.941877 23.031400 L 105.754777 23.187900 L 106.540377 23.422800 L 107.298377 23.735900 L 108.028977 24.127300 L 108.732077 24.596900 L 109.407777 25.144900 L 109.735277 25.448200 L 110.038677 25.770600 L 110.586577 26.438000 L 111.056277 27.135600 L 111.447577 27.863500 L 111.760777 28.621500 L 111.995577 29.409800 L 112.152077 30.228300 L 112.230377 31.077000 L 112.240177 31.512600 L 112.240177 52.166900 L 112.230377 52.602400 L 112.152077 53.449800 L 111.995577 54.265500 L 111.760777 55.049700 L 111.447577 55.802200 L 111.056277 56.523200 L 110.586577 57.212600 L 110.038677 57.870400 L 109.735277 58.187500 L 109.418077 58.490800 L 108.758877 59.038700 L 108.066777 59.508400 L 107.341677 59.899800 L 106.583577 60.212900 L 105.792577 60.447700 L 104.968577 60.604300 L 104.111677 60.682500 L 103.670877 60.692300 L 85.301677 60.692300 L 84.855877 60.682500 L 83.992077 60.604300 L 83.165377 60.447700 L 82.375777 60.212900 L 81.623177 59.899800 L 80.907677 59.508400 L 80.229277 59.038700 L 79.587977 58.490800 L 79.281177 58.187500 L 78.977877 57.870400 L 78.429977 57.212600 L 77.960277 56.523200 L 77.568877 55.802200 L 77.255777 55.049700 L 77.020977 54.265500 L 76.864377 53.449800 L 76.786077 52.602400 L 76.776277 52.166900 L 76.776277 31.512600 L 76.786077 31.077000 L 76.864377 30.228300 L 77.020977 29.409800 L 77.255777 28.621500 L 77.568877 27.863500 L 77.960277 27.135600 L 78.429977 26.438000 L 78.977877 25.770600 L 79.281177 25.448200 L 79.598277 25.144900 L 80.256077 24.596900 L 80.945477 24.127300 L 81.666477 23.735900 L 82.418977 23.422800 L 83.203177 23.187900 L 84.018877 23.031400 L 84.866177 22.953100 L 85.301677 22.943300 L 103.670877 22.943300 Z M 85.301677 25.272400 L 84.985877 25.279600 L 84.370577 25.337300 L 83.777377 25.452700 L 83.206077 25.625700 L 82.656777 25.856400 L 82.129377 26.144800 L 81.624077 26.490900 L 81.140677 26.894600 L 80.907177 27.118100 L 80.683677 27.351600 L 80.279877 27.835000 L 79.933877 28.340300 L 79.645477 28.867700 L 79.414777 29.417000 L 79.241677 29.988300 L 79.126377 30.581600 L 79.068677 31.196800 L 79.061477 31.512600 L 79.061477 52.210900 L 79.068677 52.521400 L 79.126377 53.127000 L 79.241677 53.712100 L 79.414777 54.276500 L 79.645477 54.820300 L 79.933877 55.343500 L 80.279877 55.846200 L 80.683677 56.328200 L 80.907177 56.561500 L 81.130377 56.785000 L 81.597277 57.188700 L 82.091677 57.534800 L 82.613477 57.823200 L 83.162777 58.053900 L 83.739577 58.226900 L 84.343877 58.342300 L 84.975577 58.400000 L 85.301677 58.407200 L 103.670877 58.407200 L 104.002177 58.400000 L 104.642077 58.342300 L 105.251877 58.226900 L 105.831377 58.053900 L 106.380677 57.823200 L 106.899777 57.534800 L 107.388677 57.188700 L 107.847377 56.785000 L 108.065377 56.561500 L 108.288877 56.333300 L 108.692677 55.859600 L 109.038677 55.362400 L 109.327077 54.841900 L 109.557777 54.298100 L 109.730877 53.730900 L 109.846177 53.140400 L 109.903877 52.526600 L 109.911077 52.210900 L 109.911077 31.512600 L 109.903877 31.186500 L 109.846177 30.554800 L 109.730877 29.950500 L 109.557777 29.373700 L 109.327077 28.824400 L 109.038677 28.302600 L 108.692677 27.808200 L 108.288877 27.341300 L 108.065377 27.118100 L 107.837077 26.894600 L 107.361877 26.490900 L 106.862077 26.144800 L 106.337477 25.856400 L 105.788077 25.625700 L 105.214077 25.452700 L 104.615377 25.337300 L 103.991877 25.279600 L 103.670877 25.272400 Z M 161.371077 16.000000 L 161.371077 52.166900 L 161.366577 52.358000 L 161.330877 52.732900 L 161.259477 53.098200 L 161.152377 53.453900 L 161.009477 53.800000 L 160.830977 54.136400 L 160.616777 54.463300 L 160.366777 54.780500 L 160.228477 54.935500 L 160.073477 55.073900 L 159.756177 55.323800 L 159.429377 55.538000 L 159.092877 55.716600 L 158.746877 55.859400 L 158.391177 55.966500 L 158.025877 56.037900 L 157.650977 56.073600 L 157.459877 56.078100 L 139.090777 56.078100 L 138.894777 56.073600 L 138.512977 56.037900 L 138.144877 55.966500 L 137.790577 55.859400 L 137.450077 55.716600 L 137.123177 55.538000 L 136.810077 55.323800 L 136.510677 55.073900 L 136.366177 54.935500 L 136.222477 54.785600 L 135.962977 54.476600 L 135.740477 54.155300 L 135.555077 53.821600 L 135.406777 53.475500 L 135.295477 53.117100 L 135.221377 52.746300 L 135.184277 52.363200 L 135.179677 52.166900 L 135.179677 31.512600 L 135.184277 31.306100 L 135.221377 30.906500 L 135.295477 30.524700 L 135.406777 30.160800 L 135.555077 29.814700 L 135.740477 29.486500 L 135.962977 29.176200 L 136.222477 28.883700 L 136.366177 28.744100 L 136.510677 28.605700 L 136.810077 28.355800 L 137.123177 28.141600 L 137.450077 27.963000 L 137.790577 27.820200 L 138.144877 27.713100 L 138.512977 27.641700 L 138.894777 27.606000 L 139.090777 27.601500 L 157.459877 27.601500 L 157.459877 25.272400 L 139.090777 25.272400 L 138.774877 25.279600 L 138.159677 25.337300 L 137.566377 25.452700 L 136.995177 25.625700 L 136.445777 25.856400 L 135.918477 26.144800 L 135.413077 26.490900 L 134.929677 26.894600 L 134.696277 27.118100 L 134.472777 27.351600 L 134.068977 27.835000 L 133.722877 28.340300 L 133.434577 28.867700 L 133.203777 29.417000 L 133.030777 29.988300 L 132.915377 30.581600 L 132.857777 31.196800 L 132.850577 31.512600 L 132.850577 52.210900 L 132.857777 52.521400 L 132.915377 53.127000 L 133.030777 53.712100 L 133.203777 54.276500 L 133.434577 54.820300 L 133.722877 55.343500 L 134.068977 55.846200 L 134.472777 56.328200 L 134.696277 56.561500 L 134.919377 56.785000 L 135.386277 57.188700 L 135.880677 57.534800 L 136.402577 57.823200 L 136.951877 58.053900 L 137.528677 58.226900 L 138.132877 58.342300 L 138.764577 58.400000 L 139.090777 58.407200 L 157.459877 58.407200 L 157.791177 58.400000 L 158.431177 58.342300 L 159.040877 58.226900 L 159.620477 58.053900 L 160.169777 57.823200 L 160.688877 57.534800 L 161.177777 57.188700 L 161.636477 56.785000 L 161.854477 56.561500 L 162.077977 56.333300 L 162.481677 55.859600 L 162.827777 55.362400 L 163.116177 54.841900 L 163.346877 54.298100 L 163.519877 53.730900 L 163.635277 53.140400 L 163.692977 52.526600 L 163.700177 52.210900 L 163.700177 16.000000 Z M 186.727477 16.000000 L 186.639577 52.210900 L 186.646777 52.521400 L 186.704477 53.127000 L 186.819877 53.712100 L 186.992877 54.276500 L 187.223577 54.820300 L 187.511977 55.343500 L 187.858077 55.846200 L 188.261777 56.328200 L 188.485277 56.561500 L 188.708477 56.785000 L 189.175377 57.188700 L 189.669777 57.534800 L 190.191577 57.823200 L 190.740977 58.053900 L 191.317677 58.226900 L 191.921977 58.342300 L 192.553677 58.400000 L 192.879877 58.407200 L 211.248977 58.407200 L 211.248977 56.078100 L 192.879877 56.078100 L 192.683777 56.073600 L 192.301977 56.037900 L 191.933977 55.966500 L 191.579677 55.859400 L 191.239077 55.716600 L 190.912277 55.538000 L 190.599177 55.323800 L 190.299777 55.073900 L 190.155177 54.935500 L 190.011577 54.785600 L 189.751977 54.476600 L 189.529477 54.155300 L 189.344077 53.821600 L 189.195777 53.475500 L 189.084577 53.117100 L 189.010377 52.746300 L 188.973377 52.363200 L 188.968677 52.166900 L 189.056577 16.000000 Z M 103.861877 27.606000 L 104.236777 27.641700 L 104.602077 27.713100 L 104.957777 27.820200 L 105.303877 27.963000 L 105.640277 28.141600 L 105.967177 28.355800 L 106.284377 28.605700 L 106.439377 28.744100 L 106.577777 28.888800 L 106.827677 29.189600 L 107.041977 29.505400 L 107.220477 29.836400 L 107.363277 30.182400 L 107.470377 30.543600 L 107.541777 30.919900 L 107.577477 31.311300 L 107.581977 31.512600 L 107.581977 52.166900 L 107.577477 52.358000 L 107.541777 52.732900 L 107.470377 53.098200 L 107.363277 53.453900 L 107.220477 53.800000 L 107.041977 54.136400 L 106.827677 54.463300 L 106.577777 54.780500 L 106.439377 54.935500 L 106.284377 55.073900 L 105.967177 55.323800 L 105.640277 55.538000 L 105.303877 55.716600 L 104.957777 55.859400 L 104.602077 55.966500 L 104.236777 56.037900 L 103.861877 56.073600 L 103.670877 56.078100 L 85.301677 56.078100 L 85.105677 56.073600 L 84.723877 56.037900 L 84.355877 55.966500 L 84.001577 55.859400 L 83.660977 55.716600 L 83.334077 55.538000 L 83.020977 55.323800 L 82.721677 55.073900 L 82.577077 54.935500 L 82.433377 54.785600 L 82.173877 54.476600 L 81.951377 54.155300 L 81.765977 53.821600 L 81.617677 53.475500 L 81.506477 53.117100 L 81.432277 52.746300 L 81.395177 52.363200 L 81.390577 52.166900 L 81.390577 31.512600 L 81.395177 31.306100 L 81.432277 30.906500 L 81.506477 30.524700 L 81.617677 30.160800 L 81.765977 29.814700 L 81.951377 29.486500 L 82.173877 29.176200 L 82.433377 28.883700 L 82.577077 28.744100 L 82.721677 28.605700 L 83.020977 28.355800 L 83.334077 28.141600 L 83.660977 27.963000 L 84.001577 27.820200 L 84.355877 27.713100 L 84.723877 27.641700 L 85.105677 27.606000 L 85.301677 27.601500 L 103.670877 27.601500 Z" transform="scale(1.000000,1.000000) translate(320.624023,77.000000)" fill="#000000" opacity="1.000000"></path>
        <path d="M 34.969727 54.437500 L 16.556641 54.437500 Q 12.953125 54.437500 10.536133 51.932617 Q 8.075195 49.471680 8.075195 45.912109 L 7.987305 34.002930 Q 7.987305 30.443359 10.492188 28.026367 Q 12.909180 25.521484 16.512695 25.521484 L 34.881836 25.521484 L 34.881836 23.192383 L 16.512695 23.192383 Q 12.074219 23.192383 8.866211 26.356445 Q 5.658203 29.564453 5.658203 34.002930 L 5.746094 45.912109 Q 5.746094 50.438477 8.910156 53.602539 Q 12.118164 56.766602 16.556641 56.766602 L 34.969727 56.766602 Q 39.452148 56.766602 42.616211 53.602539 Q 45.824219 50.394531 45.824219 45.912109 L 45.780273 16.468750 Q 45.780273 11.810547 42.572266 8.602539 Q 39.408203 5.438477 34.881836 5.438477 L 17.435547 5.438477 L 17.435547 7.767578 L 34.881836 7.767578 Q 38.353516 7.767578 40.946289 10.272461 Q 43.451172 12.777344 43.451172 16.512695 L 43.495117 45.912109 Q 43.495117 49.427734 40.990234 51.932617 Q 38.485352 54.437500 34.969727 54.437500 Z M 17.435547 10.228516 L 17.435547 12.557617 L 34.881836 12.557617 Q 36.463867 12.557617 37.650391 13.744141 Q 38.792969 14.886719 38.792969 16.468750 L 38.792969 45.912109 Q 38.792969 47.450195 37.650391 48.680664 Q 36.419922 49.823242 34.881836 49.823242 L 16.512695 49.823242 Q 14.930664 49.823242 13.788086 48.680664 Q 12.601562 47.494141 12.601562 45.912109 L 12.689453 34.046875 Q 12.689453 32.464844 13.832031 31.322266 Q 14.974609 30.179688 16.556641 30.179688 L 34.969727 30.179688 L 34.969727 27.850586 L 16.556641 27.850586 Q 14.095703 27.850586 12.162109 29.652344 Q 10.360352 31.498047 10.360352 34.046875 L 10.272461 45.956055 Q 10.272461 48.460938 12.118164 50.306641 Q 13.875977 52.152344 16.512695 52.152344 L 34.881836 52.152344 Q 37.562500 52.152344 39.276367 50.306641 Q 41.122070 48.504883 41.122070 45.956055 L 41.122070 16.468750 Q 41.122070 13.832031 39.276367 12.074219 Q 37.474609 10.228516 34.881836 10.228516 Z M 17.435547 1.000000 L 17.435547 3.329102 L 34.881836 3.329102 Q 40.331055 3.329102 44.198242 7.196289 Q 48.065430 11.063477 48.065430 16.468750 L 48.065430 45.868164 Q 48.065430 51.273438 44.198242 55.140625 Q 40.331055 59.051758 34.881836 59.051758 L 16.512695 59.051758 Q 11.019531 59.051758 7.196289 55.140625 Q 3.329102 51.273438 3.329102 45.868164 L 3.416992 34.002930 Q 3.416992 28.685547 7.240234 24.730469 Q 11.151367 20.863281 16.556641 20.863281 L 34.969727 20.863281 L 34.969727 18.534180 L 16.556641 18.534180 Q 10.140625 18.534180 5.658203 23.104492 Q 1.087891 27.586914 1.087891 34.002930 L 1.000000 45.912109 Q 1.000000 52.284180 5.570312 56.854492 Q 10.096680 61.380859 16.512695 61.380859 L 34.881836 61.380859 Q 41.341797 61.380859 45.868164 56.854492 Q 50.394531 52.240234 50.394531 45.912109 L 50.394531 16.468750 Q 50.394531 10.184570 45.868164 5.526367 Q 41.253906 1.000000 34.881836 1.000000 Z M 104.183594 61.380859 L 104.183594 25.257812 Q 104.183594 18.841797 99.657227 14.271484 Q 95.042969 9.745117 88.670898 9.745117 L 70.301758 9.745117 Q 63.929688 9.745117 59.359375 14.271484 Q 54.789062 18.841797 54.789062 25.257812 L 54.789062 61.380859 L 57.118164 61.380859 L 57.118164 25.257812 Q 57.118164 19.808594 60.985352 15.941406 Q 64.764648 12.074219 70.301758 12.074219 L 88.670898 12.074219 Q 94.164062 12.074219 97.987305 15.941406 Q 101.854492 19.808594 101.854492 25.257812 L 101.854492 61.380859 Z M 61.776367 61.380859 L 61.776367 25.257812 Q 61.776367 21.742188 64.281250 19.193359 Q 66.786133 16.688477 70.301758 16.688477 L 88.670898 16.688477 Q 92.142578 16.688477 94.735352 19.193359 Q 97.240234 21.742188 97.240234 25.257812 L 97.240234 61.380859 L 99.569336 61.380859 L 99.569336 25.257812 Q 99.569336 20.819336 96.361328 17.567383 Q 93.153320 14.359375 88.670898 14.359375 L 70.301758 14.359375 Q 65.863281 14.359375 62.655273 17.567383 Q 59.447266 20.775391 59.447266 25.257812 L 59.447266 61.380859 Z M 64.061523 61.380859 L 66.390625 61.380859 L 66.390625 25.257812 Q 66.390625 23.587891 67.577148 22.489258 Q 68.719727 21.346680 70.301758 21.346680 L 88.670898 21.346680 Q 90.208984 21.346680 91.439453 22.489258 Q 92.582031 23.631836 92.582031 25.257812 L 92.582031 61.380859 L 94.911133 61.380859 L 94.911133 25.257812 Q 94.911133 22.621094 93.065430 20.863281 Q 91.263672 19.017578 88.670898 19.017578 L 70.301758 19.017578 Q 67.752930 19.017578 65.907227 20.863281 Q 64.061523 22.708984 64.061523 25.257812 Z M 148.700195 52.152344 L 148.700195 45.077148 Q 148.700195 40.990234 144.569336 40.462891 L 121.146484 37.650391 Q 116.708008 37.079102 113.807617 33.761230 Q 110.907227 30.443359 110.907227 26.048828 L 110.907227 12.074219 L 158.192383 12.074219 L 157.972656 12.074219 L 157.972656 9.745117 L 108.578125 9.745117 Q 108.578125 13.788086 108.578125 17.831055 Q 108.578125 21.874023 108.578125 25.960938 Q 108.578125 31.234375 112.071777 35.189453 Q 115.565430 39.144531 120.838867 39.803711 L 144.305664 42.616211 Q 146.371094 42.835938 146.371094 44.945312 L 146.371094 49.823242 L 108.578125 49.823242 L 108.578125 52.152344 Z M 144.876953 38.221680 Q 151.029297 38.968750 151.029297 45.121094 L 151.029297 54.437500 L 108.578125 54.437500 L 108.578125 54.437500 L 108.578125 56.766602 L 153.358398 56.766602 Q 153.358398 53.866211 153.358398 50.987793 Q 153.358398 48.109375 153.358398 45.208984 Q 153.358398 41.649414 151.007324 39.012695 Q 148.656250 36.375977 145.140625 35.980469 L 121.717773 33.167969 Q 115.565430 32.464844 115.565430 26.224609 L 115.565430 16.688477 L 157.972656 16.688477 L 157.972656 14.359375 L 113.236328 14.359375 L 113.236328 26.136719 Q 113.236328 29.696289 115.543457 32.311035 Q 117.850586 34.925781 121.410156 35.365234 Z M 157.972656 61.380859 L 157.972656 45.384766 Q 157.972656 40.067383 154.479004 36.134277 Q 150.985352 32.201172 145.711914 31.585938 L 122.245117 28.729492 Q 120.179688 28.465820 120.179688 26.444336 L 120.179688 21.346680 L 157.972656 21.346680 L 157.972656 21.346680 L 157.972656 19.017578 L 120.179688 19.017578 L 117.850586 19.017578 L 117.850586 26.356445 Q 117.850586 30.399414 121.981445 30.970703 L 145.448242 33.783203 Q 149.798828 34.310547 152.721191 37.562500 Q 155.643555 40.814453 155.643555 45.252930 L 155.643555 59.051758 L 108.578125 59.051758 L 108.578125 61.380859 L 108.578125 61.380859 Z M 196.556641 54.437500 L 178.187500 54.437500 Q 174.583984 54.437500 172.166992 51.932617 Q 169.706055 49.471680 169.706055 45.912109 L 169.618164 25.257812 Q 169.618164 21.742188 172.123047 19.193359 Q 174.627930 16.688477 178.143555 16.688477 L 196.468750 16.688477 Q 199.940430 16.688477 202.533203 19.193359 Q 205.038086 21.742188 205.038086 25.257812 L 207.411133 25.257812 Q 207.411133 20.819336 204.203125 17.567383 Q 200.995117 14.359375 196.512695 14.359375 L 178.099609 14.359375 Q 173.661133 14.359375 170.453125 17.567383 Q 167.245117 20.775391 167.245117 25.257812 L 167.333008 45.912109 Q 167.333008 50.438477 170.497070 53.602539 Q 173.705078 56.766602 178.143555 56.766602 L 196.600586 56.766602 Q 201.083008 56.766602 204.247070 53.602539 Q 207.455078 50.394531 207.455078 45.912109 L 207.411133 43.758789 Q 207.411133 39.935547 204.664551 37.232910 Q 201.917969 34.530273 198.094727 34.530273 L 178.099609 34.530273 L 178.099609 36.859375 L 198.094727 36.859375 Q 200.951172 36.859375 202.994629 38.858887 Q 205.038086 40.858398 205.038086 43.758789 L 205.082031 45.912109 Q 205.082031 49.427734 202.577148 51.932617 Q 200.072266 54.437500 196.556641 54.437500 Z M 211.981445 45.912109 L 211.981445 43.802734 Q 211.981445 38.045898 207.894531 33.980957 Q 203.807617 29.916016 198.050781 29.916016 L 178.099609 29.916016 L 178.099609 32.245117 L 198.050781 32.245117 Q 202.796875 32.245117 206.224609 35.628906 Q 209.652344 39.012695 209.652344 43.802734 L 209.652344 45.912109 Q 209.652344 51.317383 205.785156 55.140625 Q 201.917969 59.051758 196.468750 59.051758 L 178.099609 59.051758 Q 172.606445 59.051758 168.783203 55.140625 Q 164.916016 51.273438 164.916016 45.868164 L 165.047852 25.257812 Q 165.047852 19.808594 168.915039 15.941406 Q 172.782227 12.074219 178.231445 12.074219 L 196.644531 12.074219 Q 202.049805 12.074219 205.916992 15.941406 Q 209.784180 19.808594 209.784180 25.257812 L 212.113281 25.257812 Q 212.113281 18.885742 207.542969 14.315430 Q 203.016602 9.745117 196.644531 9.745117 L 178.231445 9.745117 Q 171.859375 9.745117 167.289062 14.315430 Q 162.762695 18.841797 162.762695 25.257812 L 162.586914 45.912109 Q 162.586914 52.284180 167.157227 56.854492 Q 171.683594 61.380859 178.099609 61.380859 L 196.468750 61.380859 Q 202.928711 61.380859 207.455078 56.854492 Q 211.981445 52.240234 211.981445 45.912109 Z M 202.708984 45.956055 L 202.708984 43.802734 Q 202.708984 39.188477 198.050781 39.188477 L 178.099609 39.188477 L 178.099609 41.517578 L 198.050781 41.517578 Q 200.379883 41.517578 200.379883 43.846680 L 200.379883 45.912109 Q 200.379883 47.450195 199.237305 48.680664 Q 198.006836 49.823242 196.468750 49.823242 L 178.099609 49.823242 Q 176.517578 49.823242 175.375000 48.680664 Q 174.188477 47.494141 174.188477 45.912109 L 174.276367 25.257812 Q 174.276367 23.631836 175.418945 22.489258 Q 176.561523 21.346680 178.143555 21.346680 L 196.556641 21.346680 Q 198.138672 21.346680 199.281250 22.489258 Q 200.423828 23.631836 200.423828 25.257812 L 202.752930 25.257812 Q 202.752930 22.621094 200.907227 20.863281 Q 199.105469 19.017578 196.556641 19.017578 L 178.143555 19.017578 Q 175.638672 19.017578 173.749023 20.863281 Q 171.947266 22.665039 171.947266 25.257812 L 171.859375 45.956055 Q 171.859375 48.460938 173.705078 50.306641 Q 175.462891 52.152344 178.099609 52.152344 L 196.468750 52.152344 Q 199.149414 52.152344 200.863281 50.306641 Q 202.708984 48.504883 202.708984 45.956055 Z M 223.495117 70.653320 L 223.583008 25.257812 Q 223.583008 21.698242 226.043945 19.193359 Q 228.548828 16.688477 232.064453 16.688477 L 235.580078 16.688477 L 235.580078 14.359375 L 232.064453 14.359375 Q 227.625977 14.359375 224.417969 17.567383 Q 221.253906 20.731445 221.253906 25.257812 L 221.166016 70.653320 Z M 218.836914 70.653320 L 218.924805 25.257812 Q 218.924805 19.764648 222.748047 15.941406 Q 226.615234 12.074219 232.064453 12.074219 L 235.580078 12.074219 L 235.580078 9.745117 L 232.064453 9.745117 Q 225.692383 9.745117 221.166016 14.271484 Q 216.595703 18.841797 216.595703 25.257812 L 216.507812 70.653320 Z M 225.780273 70.653320 L 228.109375 70.653320 L 228.241211 25.257812 Q 228.241211 23.631836 229.383789 22.489258 Q 230.526367 21.346680 232.152344 21.346680 L 235.624023 21.346680 L 235.624023 19.017578 L 232.152344 19.017578 Q 229.603516 19.017578 227.757812 20.863281 Q 225.912109 22.621094 225.912109 25.257812 Z" transform="scale(1.000000,1.000000) translate(77.000000,83.254883)" fill="#000000" opacity="1.000000"></path>
    </g>
</svg>